<svg width="36" height="26" viewBox="0 0 36 26" fill="none" xmlns="http://www.w3.org/2000/svg">
<g clip-path="url(#clip0_32_2633)">
<rect width="36" height="26" rx="2" fill="#F93939"/>
<path d="M32.5714 0H3.42857C1.53502 0 0 1.55208 0 3.46667V22.5333C0 24.4479 1.53502 26 3.42857 26H32.5714C34.465 26 36 24.4479 36 22.5333V3.46667C36 1.55208 34.465 0 32.5714 0Z" fill="#F93939"/>
<path fill-rule="evenodd" clip-rule="evenodd" d="M9.42618 12.5322L6.90618 13.8721L7.38618 11.0346L5.34961 9.02393L8.16618 8.61313L9.42618 6.03046L10.6845 8.61313L13.501 9.02393L11.461 11.0346L11.9445 13.8703L9.42618 12.5322ZM15.4296 5.2002H17.1439V6.93353H15.4296V5.2002ZM17.1439 8.66686H18.8582V10.4002H17.1439V8.66686ZM17.1439 12.1335H18.8582V13.8669H17.1439V12.1335ZM15.4296 15.6002H17.1439V17.3335H15.4296V15.6002Z" fill="#FFDA2C"/>
</g>
<defs>
<clipPath id="clip0_32_2633">
<rect width="36" height="26" rx="2" fill="white"/>
</clipPath>
</defs>
</svg>
